<?xml version="1.0" encoding="UTF-8"?>
<svg width="100%" height="100%" viewBox="0 0 57 55" version="1.1" xmlns="http://www.w3.org/2000/svg" xmlns:xlink="http://www.w3.org/1999/xlink">
    <!-- Generator: Sketch 63.1 (92452) - https://sketch.com -->
    <title>Group 17</title>
    <desc>Created with Sketch.</desc>
    <g id="UI" stroke="none" stroke-width="1" fill="none" fill-rule="evenodd" stroke-linecap="round" stroke-linejoin="round">
        <g id="UID_Mini-Header" transform="translate(-912.000000, -576.000000)" fill="none">
            <g id="Group-8-Copy" transform="translate(851.000000, 540.000000)"  fill="none">
                <g id="Group-17" transform="translate(62.000000, 37.000000)"  fill="none">
                    <polyline id="Stroke-1" stroke-width="2.762" points="14.2451 22.5081 23.4871 22.5081 0.3811 22.5081 0.3811 51.7731 53.8551 51.7731 53.8551 0.3811 34.4951 0.3811 34.4951 11.4231 24.4771 11.4231" fill="none"></polyline>
                    <line x1="8.605" y1="22.6819" x2="8.605" y2="10.9889" id="Stroke-3" stroke-width="2.82"  fill="none"></line>
                    <g id="Group-12" transform="translate(1.000000, 25.182500)" stroke-width="2.82">
                        <line x1="36.4038" y1="1.0941" x2="51.1308" y2="1.0941" id="Stroke-4"  fill="none"></line>
                        <line x1="44.48" y1="20.85" x2="51.13" y2="20.85" id="Stroke-6"  fill="none"></line>
                        <line x1="0.5737" y1="16.3656" x2="12.0417" y2="16.3656" id="Stroke-8" fill="none"></line>
                        <line x1="36.4038" y1="25.1244" x2="36.4038" y2="16.6624" id="Stroke-10" fill="none"></line>
                    </g>
                    <line x1="8.605" y1="41.5481" x2="8.605" y2="35.8371" id="Stroke-13" stroke-width="2.82" fill="none"></line>
                    <line x1="44.5849" y1="34.555" x2="44.5849" y2="27.821" id="Stroke-14" stroke-width="2.82" fill="none"></line>
                    <polyline id="Stroke-15" stroke-width="2.82" points="20.9209 51.7727 20.9209 31.3237 21.3339 31.3237 28.5279 31.3237" fill="none"></polyline>
                </g>
            </g>
        </g>
    </g>
</svg>