<?xml version="1.0" encoding="UTF-8"?>
<svg width="100%" height="auto" viewBox="0 0 997 310" version="1.1" xmlns="http://www.w3.org/2000/svg" xmlns:xlink="http://www.w3.org/1999/xlink">
    <defs>
        <polygon id="path-1" points="0 1.71545398 83.0293487 1.71545398 83.0293487 137.300445 0 137.300445"></polygon>
    </defs>
    <g id="Symbol" stroke="none" stroke-width="1" fill="none" fill-rule="evenodd">
        <g id="Group-8" transform="translate(0.000000, -2.000000)">
            <g id="Group-15-Copy-2">
                <g id="Group-14" transform="translate(0.000000, 2.000000)">
                    <g id="Group-3" transform="translate(0.000000, 86.967159)">
                        <mask id="mask-2" fill="white">
                            <use xlink:href="#path-1"></use>
                        </mask>
                        <g id="Clip-2"></g>
                        <path d="M27.6327027,86.6377195 C18.1532602,69.5244628 22.9938265,51.6433389 41.2652602,36.2859938 C51.0117292,28.0981619 63.9852425,21.1680912 79.3080212,15.7710027 C80.1801186,11.0096752 81.1743664,6.31990531 82.2879239,1.71545398 C19.653154,18.5727549 -13.9126513,54.5194009 5.48370265,89.5192858 C16.5681451,109.508604 43.0492248,126.195268 80.049446,136.529826 C81.0294903,136.805047 82.0407823,137.036233 83.0293487,137.300445 C81.8703398,132.723516 80.8249593,128.028242 79.8903664,123.222879 C55.1534814,114.60295 36.140623,101.973047 27.6327027,86.6377195" id="Fill-1" fill="#F01656" mask="url(#mask-2)"></path>
                    </g>
                    <path d="M212.129583,83.2219487 C205.328928,82.0742761 198.43453,81.1054973 191.432185,80.4201965 L187.739265,91.3932673 C197.366424,92.3675504 206.78053,93.8867717 215.890681,95.873869 C214.760079,91.5116124 213.501645,87.2924708 212.129583,83.2219487 Z" id="Fill-4" fill="#F01656"></path>
                    <path d="M124.383239,92.3152584 C125.678602,92.1473735 126.976805,91.9904973 128.27785,91.8391257 L131.334451,97.3518071 L142.390487,91.9877451 L163.55092,81.7192407 L141.705876,78.8899664 L119.488699,76.0139044 L122.315204,81.1082496 C121.019841,81.256869 119.724478,81.4192496 118.431956,81.5871345 C113.327204,82.2531699 108.355965,83.0347982 103.506876,83.9182584 C102.114929,88.0961168 100.867858,92.3923204 99.7372566,96.7820991 C107.560566,94.9381168 115.798619,93.4354088 124.383239,92.3152584" id="Fill-6" fill="#F01656"></path>
                    <path d="M224.127029,189.105064 C223.002109,197.262621 221.416994,205.194497 219.482472,212.878674 C224.067374,211.788798 228.498879,210.575073 232.762781,209.251258 C233.739985,204.231223 234.583675,199.106604 235.288171,193.888409 L224.127029,189.105064 Z" id="Fill-8" fill="#F01656"></path>
                    <path d="M96.1454655,97.6746416 C97.2505009,93.2243142 98.4890496,88.8703142 99.8611115,84.6264027 C100.105412,83.866792 100.33835,83.0961726 100.588333,82.3448186 C100.724687,81.9429956 100.872404,81.5631903 101.008758,81.1668717 C111.025094,52.1392876 126.211519,32.2215265 143.877881,25.0547655 C148.601979,23.1337212 153.34312,22.1814558 158.055855,22.1814558 C171.214014,22.1814558 184.107988,29.571146 195.385598,43.8523761 C203.103802,53.6309867 209.59766,66.0572257 214.620032,80.4155177 C215.01205,81.5301637 215.384182,82.6695796 215.753474,83.8062434 C217.111333,87.9510752 218.361244,92.2280133 219.471961,96.6618274 C219.761713,97.8067478 220.023058,98.9791903 220.295766,100.140624 C222.329713,108.884403 223.909147,118.101562 224.948846,127.71504 C225.0852,128.981058 225.215873,130.255332 225.332342,131.526854 L219.560023,133.866235 L224.781244,145.166819 L234.777696,166.804712 L238.300173,145.978721 L241.885147,124.803199 L236.555979,126.96919 C236.433828,125.70042 236.305996,124.437155 236.169642,123.165633 C235.445262,116.483261 234.504988,109.999049 233.374386,103.7185 C233.158492,102.537801 232.925554,101.373615 232.698297,100.203925 C231.800634,95.5912168 230.797864,91.096854 229.695669,86.7318451 C229.525227,86.0630575 229.366147,85.3777566 229.192864,84.7117212 C229.062191,84.2135708 228.917315,83.7319336 228.780961,83.2365354 C228.704262,82.9475531 228.624722,82.6640752 228.545182,82.3778451 C228.221342,81.197146 227.906023,80.0054381 227.567979,78.8440044 C214.165519,32.8435265 189.261032,2.84165929 161.873766,0.207792035 C161.717527,0.191278761 161.561288,0.161004425 161.40789,0.14449115 C160.711917,0.0894469027 160.007421,0.0811902655 159.308607,0.0591725664 C158.854094,0.042659292 158.399581,0.00137610619 157.942227,0.00137610619 C152.527837,0.00137610619 147.025386,1.07749115 141.522935,3.31503982 C120.618165,11.7973584 102.673412,35.5489513 90.9981027,70.1772876 C89.4555982,74.7597212 88.0494478,79.4687566 86.7739699,84.268615 C86.4700142,85.4190398 86.1831027,86.5887301 85.8933504,87.7529159 C84.7655894,92.2610398 83.7599788,96.8544823 82.8679965,101.51673 C82.6435805,102.702934 82.4106425,103.886385 82.2004301,105.080845 C77.6126867,131.092004 76.6837752,159.090261 79.6693593,186.697704 C80.4562354,193.966296 81.5044566,201.044987 82.7856159,207.909004 C83.0043504,209.081447 83.2401292,210.237376 83.4730673,211.396058 C84.419023,216.116102 85.4814478,220.720553 86.6546602,225.206659 C86.9642973,226.384606 87.2682531,227.562553 87.5892531,228.723987 C93.8302885,251.121491 102.877943,270.296155 114.186802,284.610412 C127.34212,301.275058 142.395032,309.894987 157.75474,309.894987 C163.260032,309.894987 168.802253,308.785845 174.318908,306.545544 C197.979165,296.940323 217.000545,267.843934 227.871935,229.742305 C223.184766,230.799155 218.366926,231.748668 213.44966,232.588093 C203.441846,259.499226 188.832085,277.961066 171.95828,284.803066 C167.237023,286.724111 162.487359,287.676376 157.771784,287.676376 C144.613625,287.676376 131.728173,280.286686 120.456244,266.008208 C113.158465,256.777288 106.971404,245.160199 102.071182,231.795456 C101.653598,230.661544 101.244536,229.519376 100.846837,228.360695 C99.4037575,224.152562 98.0941912,219.779296 96.9096159,215.262916 C96.6113416,214.129004 96.315908,212.986836 96.0346779,211.833659 C93.7507487,202.470633 92.0122354,192.535146 90.887315,182.145544 C87.9045717,154.529845 89.4953681,126.435261 95.3131381,101.15619 C95.5801646,99.9892522 95.858554,98.8305708 96.1454655,97.6746416" id="Fill-10" fill="#F01656"></path>
                    <path d="M218.598159,216.3316 C217.410743,216.606821 216.23469,216.884795 215.021708,217.143503 C208.77215,218.470069 202.241363,219.590219 195.454912,220.470927 C183.594956,222.014919 171.678186,222.752512 159.946062,222.752512 C139.07254,222.752512 118.795566,220.415883 100.51277,216.14445 C101.720071,220.592025 103.049522,224.899237 104.512487,229.027556 C122.244186,232.222874 140.850823,233.882458 159.65631,233.882458 C173.578619,233.882458 187.591832,232.993494 201.38631,231.201804 C204.647442,230.777963 207.837558,230.290821 210.990743,229.77891 C212.229292,229.575246 213.450796,229.363326 214.672301,229.148653 C219.527071,228.295467 224.245487,227.332193 228.83323,226.269839 C230.051894,225.989113 231.276239,225.71114 232.477858,225.413901 C298.362398,209.164839 334.266106,172.235653 314.335699,136.302768 C303.251257,116.324458 276.773018,99.6267858 239.769956,89.2922283 C237.630903,88.6949982 235.429354,88.1830867 233.250531,87.6353965 C234.352726,92.099485 235.346973,96.6599009 236.224752,101.313892 C263.779619,110.242069 283.516858,123.524246 292.186699,139.187087 C307.839,167.400016 283.28392,196.325768 235.616841,211.674857 C234.437947,212.05191 233.250531,212.428963 232.040389,212.795007 C227.736717,214.088547 223.248398,215.263742 218.598159,216.3316" id="Fill-12" fill="#F01656"></path>
                </g>
            </g>
            <g id="Group-9-Copy" transform="translate(378.000000, 79.000000)">
                <path d="M0,7.44648877 C0,5.1037655 2.06986201,3 4.36970869,3 L31.7424838,3 C34.2723152,3 36.1121925,5.1037655 36.1121925,7.44648877 L36.1121925,66.4924861 L101.887807,66.4924861 L101.887807,7.44648877 C101.887807,5.1037655 103.732285,3 106.262116,3 L133.630291,3 C135.934738,3 138,5.1037655 138,7.44648877 L138,162.548826 C138,164.891549 135.934738,167 133.630291,167 L106.262116,167 C103.732285,167 101.887807,164.891549 101.887807,162.548826 L101.887807,100.925833 L36.1121925,100.925833 L36.1121925,162.548826 C36.1121925,164.891549 34.2723152,167 31.7424838,167 L4.36970869,167 C2.06986201,167 0,164.891549 0,162.548826 L0,7.44648877 Z" id="Fill-1" fill="#000000"></path>
                <path d="M236.378756,132.327696 C262.552377,132.327696 281.545624,111.477458 281.545624,84.7657277 C281.545624,58.2882692 262.552377,37.4380321 236.378756,37.4380321 L214.138127,37.4380321 L214.138127,132.327696 L236.378756,132.327696 Z M178,7.45117422 C178,5.10845095 179.857632,3 182.173882,3 L238.695005,3 C283.398623,3 320,39.7807554 320,84.7657277 C320,130.219245 283.398623,167 238.695005,167 L182.173882,167 C179.857632,167 178,164.891549 178,162.548826 L178,7.45117422 Z" id="Fill-3" fill="#000000"></path>
                <path d="M325.474987,9.00529548 C324.050766,6.00264774 325.954474,3 329.515026,3 L361.085251,3 C362.979465,3 364.645803,4.38583742 365.120543,5.54070193 L404.291359,89.850431 L405.710832,89.850431 L444.876901,5.54070193 C445.356389,4.38583742 447.01798,3 448.91694,3 L480.487166,3 C484.047717,3 485.951426,6.00264774 484.522457,9.00529548 L409.983494,164.459298 C409.271384,165.845135 407.851911,167 405.948203,167 L403.574501,167 C401.67554,167 400.25132,165.845135 399.543957,164.459298 L325.474987,9.00529548 Z" id="Fill-5" fill="#F01656"></path>
                <path d="M618.524385,157.990085 L544.226642,2.54070193 C543.509775,1.15486451 541.852912,0 540.186553,0 L537.812824,0 C536.151213,0 534.489602,1.15486451 533.777483,2.54070193 L459.474992,157.990085 C458.050754,160.992733 459.954486,164 463.515081,164 L489.626108,164 C494.373568,164 496.979923,161.223706 498.166788,158.45665 L506.716963,139.978818 L520.959342,108.561884 L538.762315,70.4467354 L538.999688,70.4467354 L557.044782,108.561884 L571.287161,139.978818 L579.832589,158.225677 C581.968945,162.614163 583.867929,164 588.140643,164 L614.489044,164 C618.049639,164 619.948622,160.992733 618.524385,157.990085" id="Fill-7" fill="#F01656"></path>
            </g>
        </g>
    </g>
</svg>