<?xml version="1.0" encoding="UTF-8"?>
<svg width="100%" height="auto" viewBox="0 0 55 55" version="1.1" xmlns="http://www.w3.org/2000/svg" xmlns:xlink="http://www.w3.org/1999/xlink">
    <!-- Generator: Sketch 63.1 (92452) - https://sketch.com -->
    <title>Group 14</title>
    <desc>Created with Sketch.</desc>
    <defs>
        <polygon id="path-1" points="0 0.4076 20.5056 0.4076 20.5056 25.3526 0 25.3526"></polygon>
    </defs>
    <g id="UI" stroke="none" stroke-width="1" fill="none" fill-rule="evenodd">
        <g id="UID_Mini-Header" transform="translate(-474.000000, -575.000000)">
            <g id="Group-6-Copy" transform="translate(411.000000, 540.000000)">
                <g id="Group-14" transform="translate(63.000000, 35.000000)">
                    <path d="M31.0638,17.2456 L21.3638,0.6506 C12.4578,2.6086 5.2018,8.9196 1.9148,17.2456 L31.0638,17.2456 Z" id="Fill-1" fill="#FFFFFE"></path>
                    <path d="M33.9344,35.5879 L53.1404,35.5879 C53.9894,32.9529 54.4594,30.1479 54.4594,27.2299 C54.4594,20.8719 52.2634,15.0369 48.6114,10.4029 L33.9344,35.5879 Z" id="Fill-3" fill="#FFFFFE"></path>
                    <path d="M37.8426,25.6626 L47.4956,9.0886 C42.5106,3.5226 35.2906,-0.0004 27.2296,-0.0004 C25.8096,-0.0004 24.4256,0.1416 23.0636,0.3516 L37.8426,25.6626 Z" id="Fill-5" fill="#FFFFFE"></path>
                    <path d="M23.344,37.21 L32.948,53.847 C41.923,51.928 49.241,45.585 52.546,37.21 L23.344,37.21 Z" id="Fill-7" fill="#FFFFFE"></path>
                    <path d="M16.5486,28.6953 L6.7596,45.1463 C11.7506,50.8433 19.0606,54.4593 27.2296,54.4593 C28.5936,54.4593 29.9236,54.3263 31.2336,54.1323 L16.5486,28.6953 Z" id="Fill-9" fill="#FFFFFE"></path>
                    <g id="Group-13" transform="translate(0.000000, 18.459600)">
                        <mask id="mask-2" fill="white">
                            <use xlink:href="#path-1"></use>
                        </mask>
                        <g id="Clip-12"></g>
                        <path d="M20.5056,0.4076 L1.3206,0.4076 C0.4706,3.0446 -0.0004,5.8506 -0.0004,8.7706 C-0.0004,15.0186 2.1266,20.7576 5.6656,25.3526 L20.5056,0.4076 Z" id="Fill-11" fill="#FFFFFE" mask="url(#mask-2)"></path>
                    </g>
                </g>
            </g>
        </g>
    </g>
</svg>