<?xml version="1.0" encoding="UTF-8"?>
<svg width="100%" height="100%" viewBox="0 0 78 34" version="1.1" xmlns="http://www.w3.org/2000/svg" xmlns:xlink="http://www.w3.org/1999/xlink">
    <!-- Generator: Sketch 63.1 (92452) - https://sketch.com -->
    <title>vr</title>
    <desc>Created with Sketch.</desc>
    <defs>
        <polygon id="path-1" points="0.123253723 0 66.1937411 0 66.1937411 33.7032543 0.123253723 33.7032543"></polygon>
    </defs>
    <g id="UI" stroke="none" stroke-width="1" fill="none" fill-rule="evenodd">
        <g id="UID_Mini-Header" transform="translate(-682.000000, -587.000000)">
            <g id="Group-7-Copy" transform="translate(631.000000, 540.000000)">
                <g id="vr" transform="translate(51.000000, 47.000000)">
                    <path d="M66.7598226,2.88888889 L11.2390776,2.88888889 C9.82034734,2.88888889 8.66666667,3.96903118 8.66666667,5.29631532 L8.66666667,28.4073884 C8.66666667,29.7335692 9.82034734,30.8148148 11.2390776,30.8148148 L28.9369131,30.8148148 L37.648357,17.4834979 C37.9628972,17.0256235 38.463302,16.7630352 38.9989002,16.7630352 C39.5355982,16.7630352 40.036003,17.0256235 40.336246,17.4636383 L49.0619871,30.8148148 L66.7598226,30.8148148 C68.1785529,30.8148148 69.3333333,29.7335692 69.3333333,28.4073884 L69.3333333,5.29631532 C69.3333333,3.96903118 68.1785529,2.88888889 66.7598226,2.88888889" id="Fill-1" fill="#FFFFFE"></path>
                    <g id="Group-5" transform="translate(5.777778, 0.000000)">
                        <mask id="mask-2" fill="white">
                            <use xlink:href="#path-1"></use>
                        </mask>
                        <g id="Clip-4"></g>
                        <path d="M64.7086265,28.6184889 C64.7086265,30.5867852 63.0611982,32.1832173 61.0295172,32.1832173 L42.661575,32.1832173 C42.6560541,32.1753531 42.6582624,32.1663654 42.6527416,32.1585012 L33.598511,18.1063037 C33.4936144,17.9523901 33.326884,17.8748716 33.1579453,17.8748716 C32.9901108,17.8748716 32.8222763,17.9523901 32.7184839,18.1063037 L23.6631491,32.1585012 C23.6587324,32.1663654 23.6598366,32.1753531 23.6554199,32.1832173 L5.28747769,32.1832173 C3.25579668,32.1832173 1.60947255,30.5867852 1.60947255,28.6184889 L1.60947255,5.08543951 C1.60947255,3.11714321 3.25579668,1.52071111 5.28747769,1.52071111 L61.0295172,1.52071111 C63.0611982,1.52071111 64.7086265,3.11714321 64.7086265,5.08543951 L64.7086265,28.6184889 Z M62.3412764,-0.000449382716 L3.97461425,-0.000449382716 C1.84687006,-0.000449382716 0.123253723,1.75439012 0.123253723,3.91929136 L0.123253723,29.784637 C0.123253723,31.9495383 1.84687006,33.7032543 3.97461425,33.7032543 L24.3455289,33.7032543 C24.3510498,33.6953901 24.3488415,33.685279 24.3543623,33.6762914 L32.6975046,20.7172173 C32.915027,20.3790568 33.4008637,20.3790568 33.6183861,20.7172173 L41.9626325,33.6762914 C41.9681534,33.685279 41.965945,33.6953901 41.9703617,33.7032543 L62.3412764,33.7032543 C64.4690206,33.7032543 66.1937411,31.9495383 66.1937411,29.784637 L66.1937411,3.91929136 C66.1937411,1.75439012 64.4690206,-0.000449382716 62.3412764,-0.000449382716 L62.3412764,-0.000449382716 Z" id="Fill-3" fill="#FFFFFE" mask="url(#mask-2)"></path>
                    </g>
                    <path d="M0.685111989,7.7037037 L4.12970283,7.7037037 C4.50920113,7.7037037 4.81481481,8.01893889 4.81481481,8.40780566 L4.81481481,23.3699721 C4.81481481,23.7588389 4.50920113,24.0740741 4.12970283,24.0740741 L0.685111989,24.0740741 C0.306733146,24.0740741 0,23.7588389 0,23.3699721 L0,8.40780566 C0,8.01893889 0.306733146,7.7037037 0.685111989,7.7037037" id="Fill-6" fill="#FFFFFE"></path>
                    <path d="M73.8702972,7.7037037 L77.314888,7.7037037 C77.6932669,7.7037037 78,8.01893889 78,8.40780566 L78,23.3699721 C78,23.7588389 77.6932669,24.0740741 77.314888,24.0740741 L73.8702972,24.0740741 C73.4919183,24.0740741 73.1851852,23.7588389 73.1851852,23.3699721 L73.1851852,8.40780566 C73.1851852,8.01893889 73.4919183,7.7037037 73.8702972,7.7037037" id="Fill-8" fill="#FFFFFE"></path>
                </g>
            </g>
        </g>
    </g>
</svg>