<svg xmlns="http://www.w3.org/2000/svg" xmlns:xlink="http://www.w3.org/1999/xlink" xmlns:lucid="lucid" width="1760" height="436"><g transform="translate(-40 -40)" lucid:page-tab-id="0_0"><path d="M0 0h1870.87v1322.83H0z" fill="#fff"/><path d="M600 99.33c0-3.3 2.7-6 6-6h268c3.3 0 6 2.7 6 6v128c0 3.32-2.7 6-6 6H606c-3.3 0-6-2.68-6-6z" stroke="#3a414a" fill="#fff"/><use xlink:href="#a" transform="matrix(1,0,0,1,605,98.33333333333331) translate(14.567901234567898 54.34027777777778)"/><use xlink:href="#b" transform="matrix(1,0,0,1,605,98.33333333333331) translate(89.75308641975307 54.34027777777778)"/><use xlink:href="#c" transform="matrix(1,0,0,1,605,98.33333333333331) translate(145.67901234567898 54.34027777777778)"/><use xlink:href="#d" transform="matrix(1,0,0,1,605,98.33333333333331) translate(236.91358024691357 54.34027777777778)"/><use xlink:href="#e" transform="matrix(1,0,0,1,605,98.33333333333331) translate(94.29012345679013 81.00694444444446)"/><use xlink:href="#f" transform="matrix(1,0,0,1,605,98.33333333333331) translate(139.90740740740742 81.00694444444446)"/><path d="M240 160c0 11.05-8.95 20-20 20s-20-8.95-20-20 8.95-20 20-20 20 8.95 20 20z" stroke="#3a414a" fill="#3a414a"/><path d="M60 143.33h113.52V180H60z" fill="#fff" fill-opacity="0"/><use xlink:href="#g" transform="matrix(1,0,0,1,65,148.33333333333331) translate(0 17.77777777777778)"/><use xlink:href="#h" transform="matrix(1,0,0,1,65,148.33333333333331) translate(72.71604938271605 17.77777777777778)"/><path d="M395.76 147.58c2.34-2.35 6.14-2.35 8.48 0l11.52 11.5c2.34 2.35 2.34 6.15 0 8.5l-11.52 11.5c-2.34 2.35-6.14 2.35-8.48 0l-11.52-11.5c-2.34-2.35-2.34-6.15 0-8.5z" stroke="#3a414a" fill="#fff"/><path d="M240.6 163.33h125.04" stroke="#3a414a" fill="none"/><path d="M240.6 163.83h-.58l.13-1h.45z" stroke="#3a414a" stroke-width=".05" fill="#3a414a"/><path d="M380.4 163.33l-14.26 4.64v-9.27z" stroke="#3a414a" fill="#3a414a"/><path d="M514.96 163.83h-96.48v-1h96.48zm68.16 0h-44.55v-1h44.55z" stroke="#3a414a" stroke-width=".05" fill="#3a414a"/><path d="M418.5 163.83h-.6l.12-.78-.05-.22h.52z" fill="#3a414a"/><path d="M418.52 163.86h-.64l.1-.8-.04-.25h.58zm-.52-1l.04.2-.1.75h.53v-.94z" stroke="#3a414a" stroke-width=".05" fill="#3a414a"/><path d="M597.88 163.33l-14.26 4.64v-9.27z" fill="#3a414a"/><path d="M599.5 163.33l-16.38 5.33V158zm-15.38 3.95l12.14-3.95-12.14-3.94z" stroke="#3a414a" stroke-width=".05" fill="#3a414a"/><use xlink:href="#i" transform="matrix(1,0,0,1,514.9618597762743,152.66666666666666) translate(0 14.222222222222223)"/><path d="M286.48 99.33c0-3.3 2.7-6 6-6h228c3.32 0 6 2.7 6 6v48c0 3.32-2.68 6-6 6h-228c-3.3 0-6-2.68-6-6z" stroke="#000" stroke-opacity="0" fill="#fff" fill-opacity="0"/><use xlink:href="#j" transform="matrix(1,0,0,1,291.48148148148147,98.33333333333331) translate(48.500000000000014 28.069444444444443)"/><use xlink:href="#k" transform="matrix(1,0,0,1,291.48148148148147,98.33333333333331) translate(80.4320987654321 28.069444444444443)"/><use xlink:href="#l" transform="matrix(1,0,0,1,291.48148148148147,98.33333333333331) translate(109.81481481481481 28.069444444444443)"/><path d="M406.98 263.12h-1v-22.05h1zm-6.48-43.38h-1V181.8h1z" stroke="#3a414a" stroke-width=".05" fill="#3a414a"/><path d="M400.3 181.35l.2-.05v.52h-1v-.58z" fill="#3a414a"/><path d="M400.28 181.32l.25-.05v.58h-1.05v-.64zm-.75.48h.95v-.47l-.2.05-.75-.1z" stroke="#3a414a" stroke-width=".05" fill="#3a414a"/><path d="M406.48 277.88l-4.63-14.26h9.27z" fill="#3a414a"/><path d="M406.48 279.5l-5.32-16.38h10.64zm-3.95-15.38l3.95 12.14 3.95-12.14z" stroke="#3a414a" stroke-width=".05" fill="#3a414a"/><use xlink:href="#m" transform="matrix(1,0,0,1,387.9320987654321,219.73869601052368) translate(0 14.222222222222223)"/><path d="M740 234.33V344c0 3.3-2.7 6-6 6H563.37" stroke="#3a414a" fill="none"/><path d="M740.5 234.35h-1v-.52h1z" stroke="#3a414a" stroke-width=".05" fill="#3a414a"/><path d="M548.6 350l14.27-4.64v9.28z" stroke="#3a414a" fill="#3a414a"/><path d="M266.48 286c0-3.3 2.7-6 6-6h268c3.32 0 6 2.7 6 6v128c0 3.3-2.68 6-6 6h-268c-3.3 0-6-2.7-6-6z" stroke="#3a414a" fill="#fff"/><use xlink:href="#a" transform="matrix(1,0,0,1,271.48148148148147,285) translate(12.71604938271605 54.34027777777778)"/><use xlink:href="#n" transform="matrix(1,0,0,1,271.48148148148147,285) translate(87.90123456790123 54.34027777777778)"/><use xlink:href="#o" transform="matrix(1,0,0,1,271.48148148148147,285) translate(182.8395061728395 54.34027777777778)"/><use xlink:href="#p" transform="matrix(1,0,0,1,271.48148148148147,285) translate(207.53086419753086 54.34027777777778)"/><use xlink:href="#q" transform="matrix(1,0,0,1,271.48148148148147,285) translate(56.17283950617285 81.00694444444446)"/><use xlink:href="#r" transform="matrix(1,0,0,1,271.48148148148147,285) translate(135 81.00694444444446)"/><path d="M1500 99.33c0-3.3 2.7-6 6-6h268c3.3 0 6 2.7 6 6v128c0 3.32-2.7 6-6 6h-268c-3.3 0-6-2.68-6-6z" stroke="#3a414a" fill="#fff"/><use xlink:href="#a" transform="matrix(1,0,0,1,1505,98.33333333333331) translate(14.567901234567898 54.34027777777778)"/><use xlink:href="#b" transform="matrix(1,0,0,1,1505,98.33333333333331) translate(89.75308641975307 54.34027777777778)"/><use xlink:href="#c" transform="matrix(1,0,0,1,1505,98.33333333333331) translate(145.67901234567898 54.34027777777778)"/><use xlink:href="#d" transform="matrix(1,0,0,1,1505,98.33333333333331) translate(236.91358024691357 54.34027777777778)"/><use xlink:href="#s" transform="matrix(1,0,0,1,1505,98.33333333333331) translate(81.97530864197532 81.00694444444446)"/><use xlink:href="#f" transform="matrix(1,0,0,1,1505,98.33333333333331) translate(152.22222222222223 81.00694444444446)"/><path d="M1140 160c0 11.05-8.95 20-20 20s-20-8.95-20-20 8.95-20 20-20 20 8.95 20 20z" stroke="#3a414a" fill="#3a414a"/><path d="M960 143.33h113.52V180H960z" fill="#fff" fill-opacity="0"/><use xlink:href="#t" transform="matrix(1,0,0,1,965,148.3333333333333) translate(0 17.77777777777778)"/><use xlink:href="#h" transform="matrix(1,0,0,1,965,148.3333333333333) translate(69.01234567901234 17.77777777777778)"/><path d="M1295.76 147.58c2.34-2.35 6.14-2.35 8.48 0l11.52 11.5c2.34 2.35 2.34 6.15 0 8.5l-11.52 11.5c-2.34 2.35-6.14 2.35-8.48 0l-11.52-11.5c-2.34-2.35-2.34-6.15 0-8.5z" stroke="#3a414a" fill="#fff"/><path d="M1140.6 163.33h125.04" stroke="#3a414a" fill="none"/><path d="M1140.6 163.83h-.58l.13-1h.45z" stroke="#3a414a" stroke-width=".05" fill="#3a414a"/><path d="M1280.4 163.33l-14.26 4.64v-9.27z" stroke="#3a414a" fill="#3a414a"/><path d="M1414.96 163.83h-96.48v-1h96.48zm68.16 0h-44.55v-1h44.55z" stroke="#3a414a" stroke-width=".05" fill="#3a414a"/><path d="M1318.5 163.83h-.6l.12-.78-.05-.22h.52z" fill="#3a414a"/><path d="M1318.52 163.86h-.64l.1-.8-.04-.25h.58zm-.52-1l.04.2-.1.75h.53v-.94z" stroke="#3a414a" stroke-width=".05" fill="#3a414a"/><path d="M1497.88 163.33l-14.26 4.64v-9.27z" fill="#3a414a"/><path d="M1499.5 163.33l-16.38 5.33V158zm-15.38 3.95l12.14-3.95-12.14-3.94z" stroke="#3a414a" stroke-width=".05" fill="#3a414a"/><g><use xlink:href="#i" transform="matrix(1,0,0,1,1414.9618597762742,152.66666666666666) translate(0 14.222222222222223)"/></g><path d="M1186.48 99.33c0-3.3 2.7-6 6-6h228c3.32 0 6 2.7 6 6v48c0 3.32-2.68 6-6 6h-228c-3.3 0-6-2.68-6-6z" stroke="#000" stroke-opacity="0" fill="#fff" fill-opacity="0"/><g><use xlink:href="#j" transform="matrix(1,0,0,1,1191.4814814814815,98.33333333333331) translate(48.500000000000014 28.069444444444443)"/><use xlink:href="#k" transform="matrix(1,0,0,1,1191.4814814814815,98.33333333333331) translate(80.4320987654321 28.069444444444443)"/><use xlink:href="#l" transform="matrix(1,0,0,1,1191.4814814814815,98.33333333333331) translate(109.81481481481481 28.069444444444443)"/></g><path d="M1306.98 263.12h-1v-22.05h1zm-6.48-43.38h-1V181.8h1z" stroke="#3a414a" stroke-width=".05" fill="#3a414a"/><path d="M1300.3 181.35l.2-.05v.52h-1v-.58z" fill="#3a414a"/><path d="M1300.28 181.32l.25-.05v.58h-1.06v-.64zm-.75.48h.94v-.47l-.18.05-.77-.1z" stroke="#3a414a" stroke-width=".05" fill="#3a414a"/><path d="M1306.48 277.88l-4.63-14.26h9.27z" fill="#3a414a"/><path d="M1306.48 279.5l-5.32-16.38h10.64zm-3.95-15.38l3.95 12.14 3.95-12.14z" stroke="#3a414a" stroke-width=".05" fill="#3a414a"/><g><use xlink:href="#m" transform="matrix(1,0,0,1,1287.9320987654323,219.7386960105237) translate(0 14.222222222222223)"/></g><path d="M1640 234.33V344c0 3.3-2.7 6-6 6h-170.63" stroke="#3a414a" fill="none"/><path d="M1640.5 234.35h-1v-.52h1z" stroke="#3a414a" stroke-width=".05" fill="#3a414a"/><path d="M1448.6 350l14.27-4.64v9.28z" stroke="#3a414a" fill="#3a414a"/><path d="M1166.48 286c0-3.3 2.7-6 6-6h268c3.32 0 6 2.7 6 6v128c0 3.3-2.68 6-6 6h-268c-3.3 0-6-2.7-6-6z" stroke="#3a414a" fill="#fff"/><g><use xlink:href="#a" transform="matrix(1,0,0,1,1171.4814814814815,285.00000000000006) translate(12.71604938271605 54.34027777777778)"/><use xlink:href="#n" transform="matrix(1,0,0,1,1171.4814814814815,285.00000000000006) translate(87.90123456790123 54.34027777777778)"/><use xlink:href="#o" transform="matrix(1,0,0,1,1171.4814814814815,285.00000000000006) translate(182.8395061728395 54.34027777777778)"/><use xlink:href="#p" transform="matrix(1,0,0,1,1171.4814814814815,285.00000000000006) translate(207.53086419753086 54.34027777777778)"/><use xlink:href="#u" transform="matrix(1,0,0,1,1171.4814814814815,285.00000000000006) translate(98.67283950617283 81.00694444444446)"/></g><g><path d="M919.5 60.25c.14 0 .25.1.25.25v395c0 .14-.1.25-.25.25-.14 0-.25-.1-.25-.25v-395c0-.14.1-.25.25-.25z" stroke="#3a414a" stroke-width=".5" fill="none"/></g><defs><path fill="#3a414a" d="M30-248c118-7 216 8 213 122C240-48 200 0 122 0H30v-248zM63-27c89 8 146-16 146-99s-60-101-146-95v194" id="v"/><path fill="#3a414a" d="M100-194c63 0 86 42 84 106H49c0 40 14 67 53 68 26 1 43-12 49-29l28 8c-11 28-37 45-77 45C44 4 14-33 15-96c1-61 26-98 85-98zm52 81c6-60-76-77-97-28-3 7-6 17-6 28h103" id="w"/><path fill="#3a414a" d="M115-194c55 1 70 41 70 98S169 2 115 4C84 4 66-9 55-30l1 105H24l-1-265h31l2 30c10-21 28-34 59-34zm-8 174c40 0 45-34 45-75s-6-73-45-74c-42 0-51 32-51 76 0 43 10 73 51 73" id="x"/><path fill="#3a414a" d="M24 0v-261h32V0H24" id="y"/><path fill="#3a414a" d="M100-194c62-1 85 37 85 99 1 63-27 99-86 99S16-35 15-95c0-66 28-99 85-99zM99-20c44 1 53-31 53-75 0-43-8-75-51-75s-53 32-53 75 10 74 51 75" id="z"/><path fill="#3a414a" d="M179-190L93 31C79 59 56 82 12 73V49c39 6 53-20 64-50L1-190h34L92-34l54-156h33" id="A"/><g id="a"><use transform="matrix(0.06172839506172839,0,0,0.06172839506172839,0,0)" xlink:href="#v"/><use transform="matrix(0.06172839506172839,0,0,0.06172839506172839,15.987654320987653,0)" xlink:href="#w"/><use transform="matrix(0.06172839506172839,0,0,0.06172839506172839,28.333333333333332,0)" xlink:href="#x"/><use transform="matrix(0.06172839506172839,0,0,0.06172839506172839,40.67901234567901,0)" xlink:href="#y"/><use transform="matrix(0.06172839506172839,0,0,0.06172839506172839,45.55555555555556,0)" xlink:href="#z"/><use transform="matrix(0.06172839506172839,0,0,0.06172839506172839,57.901234567901234,0)" xlink:href="#A"/></g><path fill="#3a414a" d="M205 0l-28-72H64L36 0H1l101-248h38L239 0h-34zm-38-99l-47-123c-12 45-31 82-46 123h93" id="B"/><path fill="#3a414a" d="M266 0h-40l-56-210L115 0H75L2-248h35L96-30l15-64 43-154h32l59 218 59-218h35" id="C"/><path fill="#3a414a" d="M185-189c-5-48-123-54-124 2 14 75 158 14 163 119 3 78-121 87-175 55-17-10-28-26-33-46l33-7c5 56 141 63 141-1 0-78-155-14-162-118-5-82 145-84 179-34 5 7 8 16 11 25" id="D"/><g id="b"><use transform="matrix(0.06172839506172839,0,0,0.06172839506172839,0,0)" xlink:href="#B"/><use transform="matrix(0.06172839506172839,0,0,0.06172839506172839,14.012345679012345,0)" xlink:href="#C"/><use transform="matrix(0.06172839506172839,0,0,0.06172839506172839,34.938271604938265,0)" xlink:href="#D"/></g><path fill="#3a414a" d="M114-163C36-179 61-72 57 0H25l-1-190h30c1 12-1 29 2 39 6-27 23-49 58-41v29" id="E"/><path fill="#3a414a" d="M108 0H70L1-190h34L89-25l56-165h34" id="F"/><path fill="#3a414a" d="M24-231v-30h32v30H24zM24 0v-190h32V0H24" id="G"/><path fill="#3a414a" d="M96-169c-40 0-48 33-48 73s9 75 48 75c24 0 41-14 43-38l32 2c-6 37-31 61-74 61-59 0-76-41-82-99-10-93 101-131 147-64 4 7 5 14 7 22l-32 3c-4-21-16-35-41-35" id="H"/><path fill="#3a414a" d="M135-143c-3-34-86-38-87 0 15 53 115 12 119 90S17 21 10-45l28-5c4 36 97 45 98 0-10-56-113-15-118-90-4-57 82-63 122-42 12 7 21 19 24 35" id="I"/><g id="c"><use transform="matrix(0.06172839506172839,0,0,0.06172839506172839,0,0)" xlink:href="#D"/><use transform="matrix(0.06172839506172839,0,0,0.06172839506172839,14.814814814814813,0)" xlink:href="#w"/><use transform="matrix(0.06172839506172839,0,0,0.06172839506172839,27.160493827160494,0)" xlink:href="#E"/><use transform="matrix(0.06172839506172839,0,0,0.06172839506172839,34.50617283950617,0)" xlink:href="#F"/><use transform="matrix(0.06172839506172839,0,0,0.06172839506172839,45.61728395061728,0)" xlink:href="#G"/><use transform="matrix(0.06172839506172839,0,0,0.06172839506172839,50.49382716049382,0)" xlink:href="#H"/><use transform="matrix(0.06172839506172839,0,0,0.06172839506172839,61.60493827160494,0)" xlink:href="#w"/><use transform="matrix(0.06172839506172839,0,0,0.06172839506172839,73.95061728395062,0)" xlink:href="#I"/></g><path fill="#3a414a" d="M59-47c-2 24 18 29 38 22v24C64 9 27 4 27-40v-127H5v-23h24l9-43h21v43h35v23H59v120" id="J"/><g id="d"><use transform="matrix(0.06172839506172839,0,0,0.06172839506172839,0,0)" xlink:href="#J"/><use transform="matrix(0.06172839506172839,0,0,0.06172839506172839,6.172839506172839,0)" xlink:href="#z"/></g><g id="e"><use transform="matrix(0.06172839506172839,0,0,0.06172839506172839,0,0)" xlink:href="#v"/><use transform="matrix(0.06172839506172839,0,0,0.06172839506172839,15.987654320987653,0)" xlink:href="#w"/><use transform="matrix(0.06172839506172839,0,0,0.06172839506172839,28.333333333333332,0)" xlink:href="#F"/></g><path fill="#3a414a" d="M30-248c87 1 191-15 191 75 0 78-77 80-158 76V0H30v-248zm33 125c57 0 124 11 124-50 0-59-68-47-124-48v98" id="K"/><path fill="#3a414a" d="M33 0v-248h34V0H33" id="L"/><g id="f"><use transform="matrix(0.06172839506172839,0,0,0.06172839506172839,0,0)" xlink:href="#B"/><use transform="matrix(0.06172839506172839,0,0,0.06172839506172839,14.814814814814813,0)" xlink:href="#K"/><use transform="matrix(0.06172839506172839,0,0,0.06172839506172839,29.629629629629626,0)" xlink:href="#L"/></g><path fill="#3a414a" d="M212-179c-10-28-35-45-73-45-59 0-87 40-87 99 0 60 29 101 89 101 43 0 62-24 78-52l27 14C228-24 195 4 139 4 59 4 22-46 18-125c-6-104 99-153 187-111 19 9 31 26 39 46" id="M"/><path fill="#3a414a" d="M141-36C126-15 110 5 73 4 37 3 15-17 15-53c-1-64 63-63 125-63 3-35-9-54-41-54-24 1-41 7-42 31l-33-3c5-37 33-52 76-52 45 0 72 20 72 64v82c-1 20 7 32 28 27v20c-31 9-61-2-59-35zM48-53c0 20 12 33 32 33 41-3 63-29 60-74-43 2-92-5-92 41" id="N"/><g id="g"><use transform="matrix(0.06172839506172839,0,0,0.06172839506172839,0,0)" xlink:href="#M"/><use transform="matrix(0.06172839506172839,0,0,0.06172839506172839,15.987654320987653,0)" xlink:href="#E"/><use transform="matrix(0.06172839506172839,0,0,0.06172839506172839,23.333333333333332,0)" xlink:href="#w"/><use transform="matrix(0.06172839506172839,0,0,0.06172839506172839,35.67901234567901,0)" xlink:href="#N"/><use transform="matrix(0.06172839506172839,0,0,0.06172839506172839,48.02469135802469,0)" xlink:href="#J"/><use transform="matrix(0.06172839506172839,0,0,0.06172839506172839,54.19753086419753,0)" xlink:href="#w"/></g><path fill="#3a414a" d="M233-177c-1 41-23 64-60 70L243 0h-38l-65-103H63V0H30v-248c88 3 205-21 203 71zM63-129c60-2 137 13 137-47 0-61-80-42-137-45v92" id="O"/><g id="h"><use transform="matrix(0.06172839506172839,0,0,0.06172839506172839,0,0)" xlink:href="#K"/><use transform="matrix(0.06172839506172839,0,0,0.06172839506172839,14.814814814814813,0)" xlink:href="#O"/></g><path fill="#333" d="M175 0L67-191c6 58 2 128 3 191H24v-248h59L193-55c-6-58-2-129-3-193h46V0h-61" id="P"/><path fill="#333" d="M110-194c64 0 96 36 96 99 0 64-35 99-97 99-61 0-95-36-95-99 0-62 34-99 96-99zm-1 164c35 0 45-28 45-65 0-40-10-65-43-65-34 0-45 26-45 65 0 36 10 65 43 65" id="Q"/><g id="i"><use transform="matrix(0.04938271604938272,0,0,0.04938271604938272,0,0)" xlink:href="#P"/><use transform="matrix(0.04938271604938272,0,0,0.04938271604938272,12.790123456790125,0)" xlink:href="#Q"/></g><path fill="#3a414a" d="M197 0v-115H63V0H30v-248h33v105h134v-105h34V0h-34" id="R"/><g id="j"><use transform="matrix(0.04320987654320987,0,0,0.04320987654320987,0,0)" xlink:href="#R"/><use transform="matrix(0.04320987654320987,0,0,0.04320987654320987,11.191358024691356,0)" xlink:href="#N"/><use transform="matrix(0.04320987654320987,0,0,0.04320987654320987,19.83333333333333,0)" xlink:href="#I"/></g><g id="k"><use transform="matrix(0.04320987654320987,0,0,0.04320987654320987,0,0)" xlink:href="#B"/><use transform="matrix(0.04320987654320987,0,0,0.04320987654320987,10.370370370370368,0)" xlink:href="#K"/><use transform="matrix(0.04320987654320987,0,0,0.04320987654320987,20.740740740740737,0)" xlink:href="#L"/></g><path fill="#3a414a" d="M106-169C34-169 62-67 57 0H25v-261h32l-1 103c12-21 28-36 61-36 89 0 53 116 60 194h-32v-121c2-32-8-49-39-48" id="S"/><path fill="#3a414a" d="M117-194c89-4 53 116 60 194h-32v-121c0-31-8-49-39-48C34-167 62-67 57 0H25l-1-190h30c1 10-1 24 2 32 11-22 29-35 61-36" id="T"/><path fill="#3a414a" d="M177-190C167-65 218 103 67 71c-23-6-38-20-44-43l32-5c15 47 100 32 89-28v-30C133-14 115 1 83 1 29 1 15-40 15-95c0-56 16-97 71-98 29-1 48 16 59 35 1-10 0-23 2-32h30zM94-22c36 0 50-32 50-73 0-42-14-75-50-75-39 0-46 34-46 75s6 73 46 73" id="U"/><path fill="#3a414a" d="M85-194c31 0 48 13 60 33l-1-100h32l1 261h-30c-2-10 0-23-3-31C134-8 116 4 85 4 32 4 16-35 15-94c0-66 23-100 70-100zm9 24c-40 0-46 34-46 75 0 40 6 74 45 74 42 0 51-32 51-76 0-42-9-74-50-73" id="V"/><path fill="#3a414a" d="M103-251c84 0 111 97 45 133-19 10-37 24-39 52H78c0-63 77-55 77-114 0-30-21-42-52-43-32 0-53 17-56 46l-32-2c7-45 34-72 88-72zM77 0v-35h34V0H77" id="W"/><g id="l"><use transform="matrix(0.04320987654320987,0,0,0.04320987654320987,0,0)" xlink:href="#M"/><use transform="matrix(0.04320987654320987,0,0,0.04320987654320987,11.191358024691356,0)" xlink:href="#S"/><use transform="matrix(0.04320987654320987,0,0,0.04320987654320987,19.83333333333333,0)" xlink:href="#N"/><use transform="matrix(0.04320987654320987,0,0,0.04320987654320987,28.475308641975303,0)" xlink:href="#T"/><use transform="matrix(0.04320987654320987,0,0,0.04320987654320987,37.11728395061728,0)" xlink:href="#U"/><use transform="matrix(0.04320987654320987,0,0,0.04320987654320987,45.75925925925925,0)" xlink:href="#w"/><use transform="matrix(0.04320987654320987,0,0,0.04320987654320987,54.40123456790122,0)" xlink:href="#V"/><use transform="matrix(0.04320987654320987,0,0,0.04320987654320987,63.04320987654321,0)" xlink:href="#W"/></g><path fill="#333" d="M146-102V0H94v-102L6-248h54l60 105 60-105h54" id="X"/><path fill="#333" d="M185-48c-13 30-37 53-82 52C43 2 14-33 14-96s30-98 90-98c62 0 83 45 84 108H66c0 31 8 55 39 56 18 0 30-7 34-22zm-45-69c5-46-57-63-70-21-2 6-4 13-4 21h74" id="Y"/><path fill="#333" d="M137-138c1-29-70-34-71-4 15 46 118 7 119 86 1 83-164 76-172 9l43-7c4 19 20 25 44 25 33 8 57-30 24-41C81-84 22-81 20-136c-2-80 154-74 161-7" id="Z"/><g id="m"><use transform="matrix(0.04938271604938272,0,0,0.04938271604938272,0,0)" xlink:href="#X"/><use transform="matrix(0.04938271604938272,0,0,0.04938271604938272,10.864197530864198,0)" xlink:href="#Y"/><use transform="matrix(0.04938271604938272,0,0,0.04938271604938272,20.74074074074074,0)" xlink:href="#Z"/></g><path fill="#3a414a" d="M63-220v92h138v28H63V0H30v-248h175v28H63" id="aa"/><g id="n"><use transform="matrix(0.06172839506172839,0,0,0.06172839506172839,0,0)" xlink:href="#aa"/><use transform="matrix(0.06172839506172839,0,0,0.06172839506172839,13.518518518518517,0)" xlink:href="#E"/><use transform="matrix(0.06172839506172839,0,0,0.06172839506172839,20.864197530864196,0)" xlink:href="#z"/><use transform="matrix(0.06172839506172839,0,0,0.06172839506172839,33.20987654320987,0)" xlink:href="#T"/><use transform="matrix(0.06172839506172839,0,0,0.06172839506172839,45.55555555555555,0)" xlink:href="#J"/><use transform="matrix(0.06172839506172839,0,0,0.06172839506172839,51.72839506172839,0)" xlink:href="#w"/><use transform="matrix(0.06172839506172839,0,0,0.06172839506172839,64.07407407407408,0)" xlink:href="#T"/><use transform="matrix(0.06172839506172839,0,0,0.06172839506172839,76.41975308641976,0)" xlink:href="#V"/></g><g id="o"><use transform="matrix(0.06172839506172839,0,0,0.06172839506172839,0,0)" xlink:href="#J"/><use transform="matrix(0.06172839506172839,0,0,0.06172839506172839,6.172839506172839,0)" xlink:href="#z"/></g><g id="p"><use transform="matrix(0.06172839506172839,0,0,0.06172839506172839,0,0)" xlink:href="#B"/><use transform="matrix(0.06172839506172839,0,0,0.06172839506172839,14.012345679012345,0)" xlink:href="#C"/><use transform="matrix(0.06172839506172839,0,0,0.06172839506172839,34.938271604938265,0)" xlink:href="#D"/></g><path fill="#3a414a" d="M210-169c-67 3-38 105-44 169h-31v-121c0-29-5-50-35-48C34-165 62-65 56 0H25l-1-190h30c1 10-1 24 2 32 10-44 99-50 107 0 11-21 27-35 58-36 85-2 47 119 55 194h-31v-121c0-29-5-49-35-48" id="ab"/><path fill="#3a414a" d="M101-234c-31-9-42 10-38 44h38v23H63V0H32v-167H5v-23h27c-7-52 17-82 69-68v24" id="ac"/><g id="q"><use transform="matrix(0.06172839506172839,0,0,0.06172839506172839,0,0)" xlink:href="#B"/><use transform="matrix(0.06172839506172839,0,0,0.06172839506172839,14.814814814814813,0)" xlink:href="#ab"/><use transform="matrix(0.06172839506172839,0,0,0.06172839506172839,33.2716049382716,0)" xlink:href="#x"/><use transform="matrix(0.06172839506172839,0,0,0.06172839506172839,45.61728395061728,0)" xlink:href="#y"/><use transform="matrix(0.06172839506172839,0,0,0.06172839506172839,50.49382716049382,0)" xlink:href="#G"/><use transform="matrix(0.06172839506172839,0,0,0.06172839506172839,55.37037037037037,0)" xlink:href="#ac"/><use transform="matrix(0.06172839506172839,0,0,0.06172839506172839,61.54320987654321,0)" xlink:href="#A"/></g><path fill="#3a414a" d="M206 0h-36l-40-164L89 0H53L-1-190h32L70-26l43-164h34l41 164 42-164h31" id="ad"/><g id="r"><use transform="matrix(0.06172839506172839,0,0,0.06172839506172839,0,0)" xlink:href="#K"/><use transform="matrix(0.06172839506172839,0,0,0.06172839506172839,14.814814814814813,0)" xlink:href="#E"/><use transform="matrix(0.06172839506172839,0,0,0.06172839506172839,22.160493827160494,0)" xlink:href="#w"/><use transform="matrix(0.06172839506172839,0,0,0.06172839506172839,34.50617283950617,0)" xlink:href="#F"/><use transform="matrix(0.06172839506172839,0,0,0.06172839506172839,45.61728395061728,0)" xlink:href="#G"/><use transform="matrix(0.06172839506172839,0,0,0.06172839506172839,50.49382716049382,0)" xlink:href="#w"/><use transform="matrix(0.06172839506172839,0,0,0.06172839506172839,62.8395061728395,0)" xlink:href="#ad"/></g><path fill="#3a414a" d="M140-251c81 0 123 46 123 126C263-46 219 4 140 4 59 4 17-45 17-125s42-126 123-126zm0 227c63 0 89-41 89-101s-29-99-89-99c-61 0-89 39-89 99S79-25 140-24" id="ae"/><g id="s"><use transform="matrix(0.06172839506172839,0,0,0.06172839506172839,0,0)" xlink:href="#K"/><use transform="matrix(0.06172839506172839,0,0,0.06172839506172839,14.814814814814813,0)" xlink:href="#O"/><use transform="matrix(0.06172839506172839,0,0,0.06172839506172839,30.80246913580247,0)" xlink:href="#ae"/><use transform="matrix(0.06172839506172839,0,0,0.06172839506172839,48.08641975308642,0)" xlink:href="#v"/></g><path fill="#3a414a" d="M240 0l2-218c-23 76-54 145-80 218h-23L58-218 59 0H30v-248h44l77 211c21-75 51-140 76-211h43V0h-30" id="af"/><g id="t"><use transform="matrix(0.06172839506172839,0,0,0.06172839506172839,0,0)" xlink:href="#af"/><use transform="matrix(0.06172839506172839,0,0,0.06172839506172839,18.456790123456788,0)" xlink:href="#w"/><use transform="matrix(0.06172839506172839,0,0,0.06172839506172839,30.80246913580247,0)" xlink:href="#E"/><use transform="matrix(0.06172839506172839,0,0,0.06172839506172839,38.148148148148145,0)" xlink:href="#U"/><use transform="matrix(0.06172839506172839,0,0,0.06172839506172839,50.49382716049382,0)" xlink:href="#w"/></g><g id="u"><use transform="matrix(0.06172839506172839,0,0,0.06172839506172839,0,0)" xlink:href="#B"/><use transform="matrix(0.06172839506172839,0,0,0.06172839506172839,14.814814814814813,0)" xlink:href="#ab"/><use transform="matrix(0.06172839506172839,0,0,0.06172839506172839,33.2716049382716,0)" xlink:href="#x"/><use transform="matrix(0.06172839506172839,0,0,0.06172839506172839,45.61728395061728,0)" xlink:href="#y"/><use transform="matrix(0.06172839506172839,0,0,0.06172839506172839,50.49382716049382,0)" xlink:href="#G"/><use transform="matrix(0.06172839506172839,0,0,0.06172839506172839,55.37037037037037,0)" xlink:href="#ac"/><use transform="matrix(0.06172839506172839,0,0,0.06172839506172839,61.54320987654321,0)" xlink:href="#A"/></g></defs></g></svg>